<svg xmlns="http://www.w3.org/2000/svg" width="130" height="120" viewBox="0 0 130 120">
  <!-- Nane (dal) (doodle tarzı, kendi çizimimiz) -->
  <defs>
    <filter id="titrek" filterUnits="userSpaceOnUse" x="0" y="0" width="100%" height="100%">
      <feTurbulence type="fractalNoise" baseFrequency="0.06" numOctaves="2" seed="143" result="g"/>
      <feDisplacementMap in="SourceGraphic" in2="g" scale="3.5" xChannelSelector="R" yChannelSelector="G"/>
    </filter>
    <pattern id="yesil" width="6" height="6" patternUnits="userSpaceOnUse" patternTransform="rotate(35)">
      <rect width="6" height="6" fill="#c9eba7"/>
      <line x1="0" y1="3.0" x2="6" y2="3.0" stroke="#8fd16a" stroke-width="3" stroke-linecap="round"/>
    </pattern>
  </defs>
  <g filter="url(#titrek)" stroke="#2b2b2b" stroke-width="4" stroke-linecap="round" stroke-linejoin="round">
    <path d="M64 116 q4 -50 0 -104" fill="none" stroke="#6fbf4a" stroke-width="5"/>
    <path d="M64 92 q-40 4 -46 -16 q24 -14 46 8z M64 92 q40 4 46 -16 q-24 -14 -46 8z" fill="url(#yesil)"/>
    <path d="M64 62 q-36 2 -40 -18 q22 -12 40 8z M64 62 q36 2 40 -18 q-22 -12 -40 8z" fill="url(#yesil)"/>
    <path d="M64 34 q-24 0 -28 -16 q16 -8 28 6z M64 34 q24 0 28 -16 q-16 -8 -28 6z" fill="url(#yesil)"/>
    <path d="M30 80 l24 8 M100 80 l-24 8 M32 48 l24 10 M98 48 l-24 10" fill="none" stroke-width="2"/>
  </g>
</svg>
