<svg xmlns="http://www.w3.org/2000/svg" width="130" height="120" viewBox="0 0 130 120">
  <!-- Havuç (doodle tarzı, kendi çizimimiz) -->
  <defs>
    <filter id="titrek" filterUnits="userSpaceOnUse" x="0" y="0" width="100%" height="100%">
      <feTurbulence type="fractalNoise" baseFrequency="0.06" numOctaves="2" seed="133" result="g"/>
      <feDisplacementMap in="SourceGraphic" in2="g" scale="3.5" xChannelSelector="R" yChannelSelector="G"/>
    </filter>
    <pattern id="turuncu" width="7" height="7" patternUnits="userSpaceOnUse" patternTransform="rotate(-35)">
      <rect width="7" height="7" fill="#ffc58f"/>
      <line x1="0" y1="3.5" x2="7" y2="3.5" stroke="#f08a3c" stroke-width="3" stroke-linecap="round"/>
    </pattern>
    <pattern id="yesil" width="6" height="6" patternUnits="userSpaceOnUse" patternTransform="rotate(35)">
      <rect width="6" height="6" fill="#c9eba7"/>
      <line x1="0" y1="3.0" x2="6" y2="3.0" stroke="#8fd16a" stroke-width="3" stroke-linecap="round"/>
    </pattern>
  </defs>
  <g filter="url(#titrek)" stroke="#2b2b2b" stroke-width="4" stroke-linecap="round" stroke-linejoin="round">
    <path d="M84 26 q-2 -18 8 -24 q4 14 -2 26 M90 28 q12 -16 24 -14 q-8 14 -20 18 M80 30 q-14 -14 -26 -10 q10 12 22 14" fill="url(#yesil)"/>
    <path d="M70 30 q20 -10 30 6 q8 16 -6 26 l-74 52 q-6 4 -8 -2 l40 -72 q8 -12 18 -10z" fill="url(#turuncu)"/>
    <path d="M56 50 l10 6 M44 70 l10 6 M34 88 l8 5" fill="none" stroke-width="3"/>
  </g>
</svg>
