<svg xmlns="http://www.w3.org/2000/svg" width="130" height="120" viewBox="0 0 130 120">
  <!-- Plaj (kum, deniz, şemsiye, güneş) (doodle tarzı, kendi çizimimiz) -->
  <defs>
    <filter id="titrek" filterUnits="userSpaceOnUse" x="0" y="0" width="100%" height="100%">
      <feTurbulence type="fractalNoise" baseFrequency="0.06" numOctaves="2" seed="505" result="g"/>
      <feDisplacementMap in="SourceGraphic" in2="g" scale="3.5" xChannelSelector="R" yChannelSelector="G"/>
    </filter>
    <pattern id="sari" width="6" height="6" patternUnits="userSpaceOnUse" patternTransform="rotate(-40)">
      <rect width="6" height="6" fill="#ffe680"/>
      <line x1="0" y1="3.0" x2="6" y2="3.0" stroke="#ffc928" stroke-width="3" stroke-linecap="round"/>
    </pattern>
    <pattern id="mavi" width="7" height="7" patternUnits="userSpaceOnUse" patternTransform="rotate(30)">
      <rect width="7" height="7" fill="#bfe3f5"/>
      <line x1="0" y1="3.5" x2="7" y2="3.5" stroke="#7cc3e6" stroke-width="3" stroke-linecap="round"/>
    </pattern>
    <pattern id="kirmizi" width="7" height="7" patternUnits="userSpaceOnUse" patternTransform="rotate(-35)">
      <rect width="7" height="7" fill="#ff9c8a"/>
      <line x1="0" y1="3.5" x2="7" y2="3.5" stroke="#e0533d" stroke-width="3.5" stroke-linecap="round"/>
    </pattern>
  </defs>
  <g filter="url(#titrek)" stroke="#2b2b2b" stroke-width="4" stroke-linecap="round" stroke-linejoin="round">
    <circle cx="108" cy="20" r="12" fill="url(#sari)"/>
    <path d="M0 70 q32 -8 64 0 q32 8 66 0 v20 h-130z" fill="url(#mavi)"/>
    <path d="M0 88 q65 -12 130 0 v32 h-130z" fill="#ffe2a8"/>
    <path d="M44 112 l8 -76" fill="none" stroke-width="4"/>
    <path d="M14 42 q36 -36 76 -2 q-10 -6 -19 0 q-10 -6 -19 0 q-10 -6 -19 0 q-10 -6 -19 2z" fill="url(#kirmizi)"/>
    <path d="M84 104 q10 -12 22 0z" fill="#ffffff" stroke-width="2.5"/>
  </g>
</svg>
