<svg xmlns="http://www.w3.org/2000/svg" width="130" height="120" viewBox="0 0 130 120">
  <!-- Jet (savaş uçağı, üstten) (doodle tarzı, kendi çizimimiz) -->
  <defs>
    <filter id="titrek" filterUnits="userSpaceOnUse" x="0" y="0" width="100%" height="100%">
      <feTurbulence type="fractalNoise" baseFrequency="0.06" numOctaves="2" seed="498" result="g"/>
      <feDisplacementMap in="SourceGraphic" in2="g" scale="3.5" xChannelSelector="R" yChannelSelector="G"/>
    </filter>
    <pattern id="gri" width="7" height="7" patternUnits="userSpaceOnUse" patternTransform="rotate(30)">
      <rect width="7" height="7" fill="#d6d3cc"/>
      <line x1="0" y1="3.5" x2="7" y2="3.5" stroke="#a9a59c" stroke-width="3" stroke-linecap="round"/>
    </pattern>
    <pattern id="turuncu" width="7" height="7" patternUnits="userSpaceOnUse" patternTransform="rotate(-35)">
      <rect width="7" height="7" fill="#ffc58f"/>
      <line x1="0" y1="3.5" x2="7" y2="3.5" stroke="#f08a3c" stroke-width="3" stroke-linecap="round"/>
    </pattern>
  </defs>
  <g filter="url(#titrek)" stroke="#2b2b2b" stroke-width="4" stroke-linecap="round" stroke-linejoin="round">
    <path d="M65 4 q8 10 8 30 l46 40 v10 l-46 -14 l-2 22 l14 10 v8 l-20 -6 l-20 6 v-8 l14 -10 l-2 -22 l-46 14 v-10 l46 -40 q0 -20 8 -30z" fill="url(#gri)"/>
    <path d="M60 22 q5 -10 10 0 v10 h-10z" fill="#7cc3e6" stroke-width="2.5"/>
    <path d="M59 112 q6 10 12 0" fill="url(#turuncu)" stroke-width="2.5"/>
  </g>
</svg>
